<svg width="53" height="14" viewBox="0 0 53 14" fill="none" xmlns="http://www.w3.org/2000/svg">
<path d="M0.956656 0.489171H4.24237L6.57094 10.0749H6.58523L8.9138 0.489171H12.1995V13.3463H10.0567V4.1606L7.82809 13.3463H5.32809L3.09951 4.1606V13.3463H0.956656V0.489171ZM17.9377 5.67489H16.152C15.9139 5.67489 15.7948 5.79393 15.7948 6.03203V11.0177C15.7948 11.2558 15.9139 11.3749 16.152 11.3749H17.9377C18.1758 11.3749 18.2948 11.2558 18.2948 11.0177V6.03203C18.2948 5.79393 18.1758 5.67489 17.9377 5.67489ZM15.0805 3.70346H19.0091C19.4091 3.70346 19.7472 3.84155 20.0234 4.11774C20.2996 4.39393 20.4377 4.73203 20.4377 5.13203V11.9177C20.4377 12.3177 20.2996 12.6558 20.0234 12.932C19.7472 13.2082 19.4091 13.3463 19.0091 13.3463H15.0805C14.6805 13.3463 14.3424 13.2082 14.0663 12.932C13.7901 12.6558 13.652 12.3177 13.652 11.9177V5.13203C13.652 4.73203 13.7901 4.39393 14.0663 4.11774C14.3424 3.84155 14.6805 3.70346 15.0805 3.70346ZM23.3032 3.70346H27.5889V5.67489H24.3746C24.1365 5.67489 24.0175 5.79393 24.0175 6.03203V11.0177C24.0175 11.2558 24.1365 11.3749 24.3746 11.3749H27.9461V13.3463H23.3032C22.9032 13.3463 22.5651 13.2082 22.2889 12.932C22.0127 12.6558 21.8746 12.3177 21.8746 11.9177V5.13203C21.8746 4.73203 22.0127 4.39393 22.2889 4.11774C22.5651 3.84155 22.9032 3.70346 23.3032 3.70346ZM29.3746 3.70346H31.5175V7.53203H32.1318L33.9603 3.70346H36.3318L34.0461 8.51774V8.53203L36.3318 13.3463H33.9603L32.1318 9.51774H31.5175V13.3463H29.3746V3.70346ZM41.602 5.67489H39.5448V7.53203H41.602C41.8401 7.53203 41.9591 7.41298 41.9591 7.17488V6.03203C41.9591 5.79393 41.8401 5.67489 41.602 5.67489ZM41.6877 9.51774H39.5448V11.3749H41.6877C41.9258 11.3749 42.0448 11.2558 42.0448 11.0177V9.87489C42.0448 9.63679 41.9258 9.51774 41.6877 9.51774ZM37.402 3.70346H42.6734C43.0734 3.70346 43.4115 3.84155 43.6877 4.11774C43.9639 4.39393 44.102 4.73203 44.102 5.13203V7.44631C44.102 7.7225 44.002 7.9606 43.802 8.1606C43.6115 8.3606 43.3591 8.47965 43.0448 8.51774V8.53203C43.3591 8.57012 43.6258 8.69393 43.8448 8.90346C44.0734 9.10346 44.1877 9.33679 44.1877 9.60346V11.9177C44.1877 12.3177 44.0496 12.6558 43.7734 12.932C43.4972 13.2082 43.1591 13.3463 42.7591 13.3463H37.402V3.70346ZM50.2675 9.51774H48.1246C47.8865 9.51774 47.7675 9.63679 47.7675 9.87489V11.0177C47.7675 11.2558 47.8865 11.3749 48.1246 11.3749H49.9103C50.1484 11.3749 50.2675 11.2558 50.2675 11.0177V9.51774ZM45.9818 3.70346H50.9818C51.3818 3.70346 51.7199 3.84155 51.9961 4.11774C52.2722 4.39393 52.4103 4.73203 52.4103 5.13203V13.3463H50.5532L50.3532 12.7035H50.3389C50.2818 12.8844 50.158 13.0368 49.9675 13.1606C49.7865 13.2844 49.5913 13.3463 49.3818 13.3463H47.0532C46.6532 13.3463 46.3151 13.2082 46.0389 12.932C45.7627 12.6558 45.6246 12.3177 45.6246 11.9177V8.9606C45.6246 8.5606 45.7627 8.2225 46.0389 7.94631C46.3151 7.67012 46.6532 7.53203 47.0532 7.53203H50.2675V6.03203C50.2675 5.79393 50.1484 5.67489 49.9103 5.67489H45.9818V3.70346Z" fill="white"/>
</svg>
