<svg width="286" height="298" viewBox="0 0 286 298" fill="none" xmlns="http://www.w3.org/2000/svg">
<g filter="url(#filter0_dd_1_38)">
<path d="M56.5786 141.972L56.8643 50.7974C56.8881 51.0872 56.9983 51.3655 57.1831 51.6021C57.3678 51.8388 57.62 52.0247 57.9122 52.1396L57.6673 143.315C57.3683 143.204 57.1084 143.02 56.9164 142.783C56.7243 142.546 56.6074 142.266 56.5786 141.972Z" fill="#141C24"/>
<path d="M229.14 54.3524L228.855 145.539C228.827 145.825 228.716 146.099 228.535 146.332C228.353 146.566 228.106 146.751 227.82 146.869L228.106 55.6823C228.393 55.5654 228.64 55.3803 228.822 55.1464C229.004 54.9125 229.114 54.6383 229.14 54.3524Z" fill="#141C24"/>
<path d="M228.147 55.682L227.862 146.869L148.902 188.766L149.188 97.5906L228.147 55.682Z" fill="#141C24"/>
<path d="M144.112 97.5906L143.826 188.766L57.6267 143.315L57.9125 52.1399L144.112 97.5906Z" fill="#141C24"/>
<path d="M149.188 97.5905L148.848 188.765C148.062 189.133 147.192 189.324 146.31 189.324C145.427 189.324 144.557 189.133 143.771 188.765L144.057 97.5905C144.85 97.9663 145.73 98.1625 146.623 98.1625C147.515 98.1625 148.395 97.9663 149.188 97.5905Z" fill="#141C24"/>
<path d="M228.12 52.9851C228.429 53.0766 228.699 53.2551 228.89 53.4952C229.081 53.7352 229.184 54.0244 229.184 54.3211C229.184 54.6179 229.081 54.9071 228.89 55.1471C228.699 55.3872 228.429 55.5657 228.12 55.6572L149.188 97.5659C148.402 97.9335 147.532 98.1252 146.65 98.1252C145.767 98.1252 144.897 97.9335 144.112 97.5659L57.9123 52.14C57.6049 52.0451 57.3378 51.8645 57.1486 51.6237C56.9594 51.383 56.8576 51.0941 56.8576 50.7977C56.8576 50.5013 56.9594 50.2124 57.1486 49.9716C57.3378 49.7308 57.6049 49.5503 57.9123 49.4554L136.858 7.55913C137.641 7.19167 138.509 7 139.389 7C140.27 7 141.138 7.19167 141.921 7.55913L228.12 52.9851Z" fill="#141C24"/>
<path d="M228.12 52.9851C228.429 53.0766 228.699 53.2551 228.89 53.4952C229.081 53.7352 229.184 54.0244 229.184 54.3211C229.184 54.6179 229.081 54.9071 228.89 55.1471C228.699 55.3872 228.429 55.5657 228.12 55.6572L149.188 97.5659C148.402 97.9335 147.532 98.1252 146.65 98.1252C145.767 98.1252 144.897 97.9335 144.112 97.5659L57.9123 52.14C57.6049 52.0451 57.3378 51.8645 57.1486 51.6237C56.9594 51.383 56.8576 51.0941 56.8576 50.7977C56.8576 50.5013 56.9594 50.2124 57.1486 49.9716C57.3378 49.7308 57.6049 49.5503 57.9123 49.4554L136.858 7.55913C137.641 7.19167 138.509 7 139.389 7C140.27 7 141.138 7.19167 141.921 7.55913L228.12 52.9851Z" fill="url(#paint0_radial_1_38)" fill-opacity="0.05"/>
<path d="M147.732 49.575L143.867 51.6126C143.825 51.6349 143.811 51.6686 143.832 51.6958L147.497 57.4593C147.535 57.5078 147.654 57.5176 147.724 57.4771L158.848 51.6124C158.921 51.5738 158.895 51.5113 158.81 51.4911L147.878 49.5587C147.834 49.5477 147.77 49.5547 147.732 49.575Z" fill="#57D6FF"/>
<path d="M145.599 56.4055L142.468 51.4316C142.457 51.418 142.44 51.4045 142.41 51.3972L128.687 48.9694C128.548 48.9285 128.393 49.0256 128.508 49.0866L145.37 56.4881C145.464 56.5455 145.654 56.4793 145.599 56.4055Z" fill="#57D6FF"/>
<path d="M130.04 54.1607L126.948 49.3949C126.93 49.3204 127.101 49.2762 127.194 49.3297L145.548 57.3549C145.645 57.4103 145.524 57.5048 145.388 57.4776L131.222 54.9669C130.577 54.8343 130.129 54.5291 130.04 54.1607Z" fill="#57D6FF"/>
<path d="M156.979 50.3674L142.941 41.4772C142.829 41.4182 142.641 41.4981 142.719 41.5716L147.323 48.8067C147.337 48.8222 147.363 48.8316 147.389 48.8371L156.823 50.4881C156.963 50.5172 157.088 50.4167 156.979 50.3674Z" fill="#57D6FF"/>
<path d="M154.09 42.9103L158.852 50.3786C158.907 50.4524 158.728 50.5165 158.619 50.4633L143.398 40.7869C143.296 40.7375 143.384 40.6494 143.521 40.6569L152.565 42.2851C153.264 42.3322 153.839 42.5703 154.09 42.9103Z" fill="#57D6FF"/>
<path d="M55.4219 50.2628L55.7621 141.997L55.558 141.674L147.051 189.698H146.371L167.356 178.512L188.423 167.326L209.476 156.215L230.597 145.191C230.605 145.187 230.614 145.185 230.623 145.184C230.632 145.183 230.641 145.183 230.65 145.186C230.659 145.188 230.667 145.192 230.674 145.197C230.682 145.202 230.688 145.209 230.692 145.216C230.697 145.224 230.699 145.232 230.701 145.24C230.702 145.248 230.701 145.257 230.698 145.265C230.696 145.273 230.692 145.28 230.686 145.287C230.68 145.294 230.673 145.299 230.665 145.303L209.83 156.762L188.926 168.122L168.023 179.494L147.065 190.742C146.961 190.796 146.844 190.825 146.725 190.825C146.605 190.825 146.488 190.796 146.384 190.742L55.2041 142.271C55.142 142.238 55.0905 142.191 55.0546 142.134C55.0188 142.077 55 142.013 55 141.948L55.2858 50.2628V50.2007L55.4219 50.2628Z" fill="#00C5FF"/>
<path d="M146.67 189.3L146.343 166.792L146.126 144.271V121.763V99.2431C146.126 99.1347 146.158 99.0283 146.218 98.9346C146.278 98.8408 146.363 98.7629 146.466 98.7087L188.531 76.3375C202.589 68.9426 216.648 61.5601 230.787 54.3019C216.933 62.0075 202.998 69.5889 189.062 77.1578L147.024 99.7776L147.351 99.2431V121.763L147.255 144.271L147.065 166.792L146.67 189.3Z" fill="#00C5FF"/>
<path d="M168.624 103.623C168.595 103.669 168.58 103.72 168.579 103.772L169.016 104.03L189.468 93.1159C196.248 89.4638 203.027 85.8057 209.768 82.0876C202.888 85.5898 196.049 89.1519 189.21 92.7201L168.745 103.514C168.695 103.541 168.653 103.578 168.624 103.623Z" fill="#00C5FF"/>
<path d="M169.016 104.03L189.468 93.1159C196.248 89.4638 203.027 85.8057 209.768 82.0876C202.888 85.5898 196.049 89.1519 189.21 92.7201L168.745 103.514C168.695 103.541 168.653 103.578 168.624 103.623C168.595 103.669 168.58 103.72 168.579 103.772L169.016 104.03ZM169.016 104.03L169.175 103.772" stroke="#00C5FF" stroke-width="0.5"/>
<path d="M168.624 130.267C168.595 130.312 168.58 130.364 168.579 130.416L169.016 130.674L189.468 119.76C196.248 116.108 203.027 112.45 209.768 108.732C202.888 112.234 196.049 115.796 189.21 119.364L168.745 130.158C168.695 130.184 168.653 130.222 168.624 130.267Z" fill="#00C5FF"/>
<path d="M169.016 130.674L189.468 119.76C196.248 116.108 203.027 112.45 209.768 108.732C202.888 112.234 196.049 115.796 189.21 119.364L168.745 130.158C168.695 130.184 168.653 130.222 168.624 130.267C168.595 130.312 168.58 130.364 168.579 130.416L169.016 130.674ZM169.016 130.674L169.175 130.416" stroke="#00C5FF" stroke-width="0.5"/>
<path d="M168.624 156.911C168.595 156.957 168.58 157.008 168.579 157.06L169.016 157.318L189.468 146.404C196.248 142.752 203.027 139.094 209.768 135.376C202.888 138.878 196.049 142.44 189.21 146.008L168.745 156.802C168.695 156.829 168.653 156.866 168.624 156.911Z" fill="#00C5FF"/>
<path d="M169.016 157.318L189.468 146.404C196.248 142.752 203.027 139.094 209.768 135.376C202.888 138.878 196.049 142.44 189.21 146.008L168.745 156.802C168.695 156.829 168.653 156.866 168.624 156.911C168.595 156.957 168.58 157.008 168.579 157.06L169.016 157.318ZM169.016 157.318L169.175 157.06" stroke="#00C5FF" stroke-width="0.5"/>
<path d="M168.624 108.325C168.595 108.37 168.58 108.422 168.579 108.474L169.016 108.732L189.468 97.8177C196.248 94.1657 203.027 90.5077 209.768 86.7897C202.888 90.2918 196.049 93.8539 189.21 97.422L168.745 108.216C168.695 108.242 168.653 108.28 168.624 108.325Z" fill="#00C5FF"/>
<path d="M169.016 108.732L189.468 97.8177C196.248 94.1657 203.027 90.5077 209.768 86.7897C202.888 90.2918 196.049 93.8539 189.21 97.422L168.745 108.216C168.695 108.242 168.653 108.28 168.624 108.325C168.595 108.37 168.58 108.422 168.579 108.474L169.016 108.732ZM169.016 108.732L169.175 108.474" stroke="#00C5FF" stroke-width="0.5"/>
<path d="M168.624 134.969C168.595 135.014 168.58 135.066 168.579 135.118L169.016 135.376L189.468 124.462C196.248 120.81 203.027 117.152 209.768 113.434C202.888 116.936 196.049 120.498 189.21 124.066L168.745 134.86C168.695 134.886 168.653 134.924 168.624 134.969Z" fill="#00C5FF"/>
<path d="M169.016 135.376L189.468 124.462C196.248 120.81 203.027 117.152 209.768 113.434C202.888 116.936 196.049 120.498 189.21 124.066L168.745 134.86C168.695 134.886 168.653 134.924 168.624 134.969C168.595 135.014 168.58 135.066 168.579 135.118L169.016 135.376ZM169.016 135.376L169.175 135.118" stroke="#00C5FF" stroke-width="0.5"/>
<path d="M168.624 161.613C168.595 161.658 168.58 161.71 168.579 161.762L169.016 162.02L189.468 151.106C196.248 147.454 203.027 143.796 209.768 140.078C202.888 143.58 196.049 147.142 189.21 150.71L168.745 161.504C168.695 161.53 168.653 161.568 168.624 161.613Z" fill="#00C5FF"/>
<path d="M169.016 162.02L189.468 151.106C196.248 147.454 203.027 143.796 209.768 140.078C202.888 143.58 196.049 147.142 189.21 150.71L168.745 161.504C168.695 161.53 168.653 161.568 168.624 161.613C168.595 161.658 168.58 161.71 168.579 161.762L169.016 162.02ZM169.016 162.02L169.175 161.762" stroke="#00C5FF" stroke-width="0.5"/>
<path d="M168.624 113.027C168.595 113.072 168.58 113.123 168.579 113.176L169.016 113.434L189.468 102.519C196.248 98.8674 203.027 95.2093 209.768 91.4913C202.888 94.9934 196.049 98.5555 189.21 102.124L168.745 112.918C168.695 112.944 168.653 112.982 168.624 113.027Z" fill="#00C5FF"/>
<path d="M169.016 113.434L189.468 102.519C196.248 98.8674 203.027 95.2093 209.768 91.4913C202.888 94.9934 196.049 98.5555 189.21 102.124L168.745 112.918C168.695 112.944 168.653 112.982 168.624 113.027C168.595 113.072 168.58 113.123 168.579 113.176L169.016 113.434ZM169.016 113.434L169.175 113.176" stroke="#00C5FF" stroke-width="0.5"/>
<path d="M168.624 139.671C168.595 139.716 168.58 139.768 168.579 139.82L169.016 140.078L189.468 129.164C196.248 125.512 203.027 121.854 209.768 118.136C202.888 121.638 196.049 125.2 189.21 128.768L168.745 139.562C168.695 139.588 168.653 139.626 168.624 139.671Z" fill="#00C5FF"/>
<path d="M169.016 140.078L189.468 129.164C196.248 125.512 203.027 121.854 209.768 118.136C202.888 121.638 196.049 125.2 189.21 128.768L168.745 139.562C168.695 139.588 168.653 139.626 168.624 139.671C168.595 139.716 168.58 139.768 168.579 139.82L169.016 140.078ZM169.016 140.078L169.175 139.82" stroke="#00C5FF" stroke-width="0.5"/>
<path d="M168.624 166.315C168.595 166.36 168.58 166.412 168.579 166.464L169.016 166.722L189.468 155.808C196.248 152.156 203.027 148.498 209.768 144.78C202.888 148.282 196.049 151.844 189.21 155.412L168.745 166.206C168.695 166.232 168.653 166.27 168.624 166.315Z" fill="#00C5FF"/>
<path d="M169.016 166.722L189.468 155.808C196.248 152.156 203.027 148.498 209.768 144.78C202.888 148.282 196.049 151.844 189.21 155.412L168.745 166.206C168.695 166.232 168.653 166.27 168.624 166.315C168.595 166.36 168.58 166.412 168.579 166.464L169.016 166.722ZM169.016 166.722L169.175 166.464" stroke="#00C5FF" stroke-width="0.5"/>
</g>
<defs>
<filter id="filter0_dd_1_38" x="0" y="0" width="285.787" height="297.825" filterUnits="userSpaceOnUse" color-interpolation-filters="sRGB">
<feFlood flood-opacity="0" result="BackgroundImageFix"/>
<feColorMatrix in="SourceAlpha" type="matrix" values="0 0 0 0 0 0 0 0 0 0 0 0 0 0 0 0 0 0 127 0" result="hardAlpha"/>
<feOffset dy="14"/>
<feGaussianBlur stdDeviation="10.5"/>
<feComposite in2="hardAlpha" operator="out"/>
<feColorMatrix type="matrix" values="0 0 0 0 0 0 0 0 0 0 0 0 0 0 0 0 0 0 0.25 0"/>
<feBlend mode="normal" in2="BackgroundImageFix" result="effect1_dropShadow_1_38"/>
<feColorMatrix in="SourceAlpha" type="matrix" values="0 0 0 0 0 0 0 0 0 0 0 0 0 0 0 0 0 0 127 0" result="hardAlpha"/>
<feOffset dy="52"/>
<feGaussianBlur stdDeviation="27.5"/>
<feComposite in2="hardAlpha" operator="out"/>
<feColorMatrix type="matrix" values="0 0 0 0 0 0 0 0 0 0.772549 0 0 0 0 1 0 0 0 0.05 0"/>
<feBlend mode="normal" in2="effect1_dropShadow_1_38" result="effect2_dropShadow_1_38"/>
<feBlend mode="normal" in="SourceGraphic" in2="effect2_dropShadow_1_38" result="shape"/>
</filter>
<radialGradient id="paint0_radial_1_38" cx="0" cy="0" r="1" gradientUnits="userSpaceOnUse" gradientTransform="translate(124.549 25.8079) rotate(57.8472) scale(85.4176 180.74)">
<stop stop-color="white"/>
<stop stop-color="white"/>
<stop offset="1" stop-color="white" stop-opacity="0"/>
</radialGradient>
</defs>
</svg>
